<svg xmlns="http://www.w3.org/2000/svg" data-name="Layer 1" viewBox="0 0 1000 1000"><path d="M188.05 385.4h51.36c28.2 0 45.47 5.47 56.83 16.83 8.09 8.09 12 18.8 12 30.82 0 38.25-28.85 63.82-77.37 63.82h-21.62L198.1 538.4H147Zm40.22 75c19.45 0 28.41-8.74 28.41-20.32a12.72 12.72 0 0 0-3.72-9c-3.49-3.5-9.61-4.81-15.29-4.81h-9.62l-9 34.09Zm105.13-75h51.14l-29.29 109.29H425l-11.83 43.71H292.31Zm185.78-1.09h50.71l23.16 154.09h-54.42L536 517.86h-53.54l-13.33 20.54h-55.74Zm14 97.26L529 444.42l-23.82 37.15ZM632 480l-30-94.6h53.77l12.46 51.15L708 385.4h60.54l-87 101-14 52h-51.09Z"/><path d="M706.05 478.8h51.05l-4.44 16.42h-31.39l-1.62 6.07h29.24l-3.84 14.45H715.8l-1.79 6.5h31.81l-4.37 16.42H690Zm57.55 0h23.34c11 0 18 2.39 22.06 6.41 3.34 3.34 4.7 7.78 4.7 12.49 0 9.32-4.87 17.36-16.67 21l8.29 19.93h-21.54l-6.67-17.11h-5l-4.62 17.11h-20Zm19.58 28.47c6.67 0 10.17-3.07 10.17-6.84a4.38 4.38 0 0 0-1.28-3.16c-1.11-1.11-3.08-1.71-5.9-1.71h-7.1l-3.16 11.71ZM808 529l11.46-13.68c6.84 5.73 13.85 8.47 20.18 8.47 2.56 0 4.36-.94 4.36-2.65 0-1.88-1.11-2.48-9.83-5.73-11.12-4.11-16.34-8-16.34-16.85 0-11.54 10.61-20.95 26.94-20.95 10.69 0 20.18 3.42 26.68 9L860 500.26c-4.53-3.67-10.94-6.67-17.27-6.67-2.57 0-4.36.69-4.36 2.4s1.28 2.14 9.57 5.21c10.18 3.77 16.68 8 16.68 17.19 0 12.06-9.92 21.46-27.11 21.46A43.72 43.72 0 0 1 808 529Z" style="fill:#0071bc"/></svg>