<svg width="27" height="29" viewBox="0 0 27 29" fill="none" xmlns="http://www.w3.org/2000/svg">
<path d="M4.11578 15.1293L4.11561 15.1294C3.21839 15.6596 2.65277 16.1874 2.30725 16.6505C1.97013 17.1024 1.82446 17.5188 1.82446 17.8208C1.82446 18.3644 2.0404 18.8858 2.42478 19.2701C2.80916 19.6545 3.33049 19.8705 3.87409 19.8705H17.8208C18.3644 19.8705 18.8858 19.6545 19.2701 19.2701C19.6545 18.8858 19.8705 18.3644 19.8705 17.8208C19.8705 17.5188 19.7248 17.1024 19.3877 16.6505C19.0421 16.1874 18.4765 15.6596 17.5793 15.1294L17.5791 15.1293C15.9183 14.1488 13.5326 13.4467 10.8475 13.4467C8.16228 13.4467 5.77662 14.1488 4.11578 15.1293ZM13.3925 7.9688C14.0675 7.29381 14.4467 6.37832 14.4467 5.42373C14.4467 4.46914 14.0675 3.55365 13.3925 2.87866C12.7175 2.20366 11.802 1.82446 10.8475 1.82446C9.89287 1.82446 8.97738 2.20366 8.30239 2.87866C7.62739 3.55365 7.24818 4.46914 7.24818 5.42373C7.24818 6.37832 7.62739 7.29381 8.30239 7.9688C8.97738 8.6438 9.89287 9.023 10.8475 9.023C11.802 9.023 12.7175 8.6438 13.3925 7.9688ZM15.7712 5.42373C15.7712 6.72958 15.2524 7.98195 14.3291 8.90533C13.4057 9.82871 12.1533 10.3475 10.8475 10.3475C9.5416 10.3475 8.28923 9.82871 7.36586 8.90533C6.44248 7.98195 5.92373 6.72958 5.92373 5.42373C5.92373 4.11788 6.44248 2.8655 7.36586 1.94213C8.28923 1.01875 9.5416 0.5 10.8475 0.5C12.1533 0.5 13.4057 1.01875 14.3291 1.94213C15.2524 2.8655 15.7712 4.11788 15.7712 5.42373ZM0.5 17.8208C0.5 16.5363 1.53126 15.1186 3.44088 13.9897C5.32338 12.8769 7.946 12.1223 10.8475 12.1223C13.7489 12.1223 16.3715 12.8769 18.254 13.9897C20.1637 15.1186 21.1949 16.5363 21.1949 17.8208C21.1949 18.7157 20.8394 19.5739 20.2067 20.2067C19.5739 20.8394 18.7157 21.1949 17.8208 21.1949H3.87409C2.97923 21.1949 2.12101 20.8394 1.48825 20.2067C0.855484 19.5739 0.5 18.7157 0.5 17.8208Z" fill="#0071BC" stroke="#0071BC"/>
<path d="M20.3636 13V12.5H19.8636H17.1364H16.6364V13V18.6364H11H10.5V19.1364V21.8636V22.3636H11H16.6364V28V28.5H17.1364H19.8636H20.3636V28V22.3636H26H26.5V21.8636V19.1364V18.6364H26H20.3636V13Z" fill="#0071BC" stroke="white"/>
</svg>
