<svg width="260" height="271" viewBox="0 0 260 271" fill="none" xmlns="http://www.w3.org/2000/svg">
<mask id="path-1-inside-1_239_41" fill="white">
<path fill-rule="evenodd" clip-rule="evenodd" d="M58.5805 0.427625C54.8978 -0.214074 51.1231 -0.13288 47.4721 0.666568C43.8212 1.46602 40.3654 2.96806 37.3021 5.08692C34.2389 7.20577 31.6282 9.89994 29.6192 13.0155C27.6101 16.1312 26.2421 19.6072 25.5932 23.2451L0.433341 164.251C-0.878861 171.597 0.81648 179.156 5.14645 185.267C9.47643 191.377 16.0864 195.539 23.5224 196.836L93.6001 209.043V166.4H156V104H195.172L204.042 54.3264C204.691 50.6886 204.609 46.96 203.8 43.3536C202.99 39.7472 201.47 36.3336 199.325 33.3077C197.18 30.2819 194.452 27.703 191.298 25.7185C188.144 23.734 184.625 22.3826 180.942 21.7417L58.5805 0.427625ZM65.3333 45.8994C67.0807 44.4307 69.4413 43.7162 71.8655 44.1412L153.192 58.4005C154.003 58.5428 154.765 58.8027 155.461 59.1597C156.617 59.725 157.622 60.5708 158.376 61.6326C159.111 62.6685 159.568 63.8572 159.723 65.0899C159.848 65.9218 159.843 66.7877 159.69 67.6619C158.927 72.0138 154.78 74.9231 150.428 74.1601L69.1023 59.9008C64.7504 59.1378 61.8411 54.9913 62.6041 50.6394C62.6584 50.3301 62.7297 50.0281 62.817 49.7341C63.0255 48.9973 63.3449 48.294 63.7657 47.6482C64.1955 46.9885 64.7245 46.399 65.3333 45.8994ZM143.206 114.4C146.715 115.016 150.09 113.243 151.666 110.252C152.139 109.461 152.465 108.591 152.626 107.684C152.805 106.679 152.78 105.65 152.551 104.655C152.322 103.66 151.895 102.721 151.294 101.891C150.693 101.061 149.931 100.359 149.052 99.8235C148.745 99.6365 148.425 99.4714 148.096 99.3289C147.439 99.0084 146.726 98.7735 145.969 98.6408L64.643 84.3816C60.2911 83.6186 56.1446 86.5279 55.3816 90.8798C54.6185 95.2317 57.5279 99.3782 61.8798 100.141L143.206 114.4ZM49.091 128.709C50.6246 125.61 54.0643 123.754 57.643 124.382L108.53 133.304C112.882 134.067 115.791 138.213 115.028 142.565C114.265 146.917 110.119 149.826 105.767 149.063L54.8798 140.141C53.5397 139.906 52.3363 139.35 51.3349 138.567C50.6674 138.085 50.0809 137.501 49.5984 136.835C48.9976 136.005 48.5703 135.065 48.3416 134.071C48.1128 133.076 48.0872 132.046 48.2663 131.042C48.412 130.224 48.6909 129.436 49.091 128.709ZM196.182 114.399V178.217H260V206.581H196.182V270.399H167.818V206.581H104V178.217H167.818V114.399H196.182Z"/>
</mask>
<path fill-rule="evenodd" clip-rule="evenodd" d="M58.5805 0.427625C54.8978 -0.214074 51.1231 -0.13288 47.4721 0.666568C43.8212 1.46602 40.3654 2.96806 37.3021 5.08692C34.2389 7.20577 31.6282 9.89994 29.6192 13.0155C27.6101 16.1312 26.2421 19.6072 25.5932 23.2451L0.433341 164.251C-0.878861 171.597 0.81648 179.156 5.14645 185.267C9.47643 191.377 16.0864 195.539 23.5224 196.836L93.6001 209.043V166.4H156V104H195.172L204.042 54.3264C204.691 50.6886 204.609 46.96 203.8 43.3536C202.99 39.7472 201.47 36.3336 199.325 33.3077C197.18 30.2819 194.452 27.703 191.298 25.7185C188.144 23.734 184.625 22.3826 180.942 21.7417L58.5805 0.427625ZM65.3333 45.8994C67.0807 44.4307 69.4413 43.7162 71.8655 44.1412L153.192 58.4005C154.003 58.5428 154.765 58.8027 155.461 59.1597C156.617 59.725 157.622 60.5708 158.376 61.6326C159.111 62.6685 159.568 63.8572 159.723 65.0899C159.848 65.9218 159.843 66.7877 159.69 67.6619C158.927 72.0138 154.78 74.9231 150.428 74.1601L69.1023 59.9008C64.7504 59.1378 61.8411 54.9913 62.6041 50.6394C62.6584 50.3301 62.7297 50.0281 62.817 49.7341C63.0255 48.9973 63.3449 48.294 63.7657 47.6482C64.1955 46.9885 64.7245 46.399 65.3333 45.8994ZM143.206 114.4C146.715 115.016 150.09 113.243 151.666 110.252C152.139 109.461 152.465 108.591 152.626 107.684C152.805 106.679 152.78 105.65 152.551 104.655C152.322 103.66 151.895 102.721 151.294 101.891C150.693 101.061 149.931 100.359 149.052 99.8235C148.745 99.6365 148.425 99.4714 148.096 99.3289C147.439 99.0084 146.726 98.7735 145.969 98.6408L64.643 84.3816C60.2911 83.6186 56.1446 86.5279 55.3816 90.8798C54.6185 95.2317 57.5279 99.3782 61.8798 100.141L143.206 114.4ZM49.091 128.709C50.6246 125.61 54.0643 123.754 57.643 124.382L108.53 133.304C112.882 134.067 115.791 138.213 115.028 142.565C114.265 146.917 110.119 149.826 105.767 149.063L54.8798 140.141C53.5397 139.906 52.3363 139.35 51.3349 138.567C50.6674 138.085 50.0809 137.501 49.5984 136.835C48.9976 136.005 48.5703 135.065 48.3416 134.071C48.1128 133.076 48.0872 132.046 48.2663 131.042C48.412 130.224 48.6909 129.436 49.091 128.709ZM196.182 114.399V178.217H260V206.581H196.182V270.399H167.818V206.581H104V178.217H167.818V114.399H196.182Z" fill="#0071BC"/>
<path d="M47.4721 0.666568L47.2582 -0.310288L47.4721 0.666568ZM58.5805 0.427625L58.4088 1.41278L58.4089 1.41279L58.5805 0.427625ZM37.3021 5.08692L37.871 5.90934L37.871 5.90934L37.3021 5.08692ZM25.5932 23.2451L26.5776 23.4208L26.5776 23.4207L25.5932 23.2451ZM0.433341 164.251L1.41776 164.427L1.41779 164.427L0.433341 164.251ZM5.14645 185.267L4.33053 185.845L4.33053 185.845L5.14645 185.267ZM23.5224 196.836L23.3506 197.821L23.3508 197.821L23.5224 196.836ZM93.6001 209.043L93.4285 210.028L94.6001 210.232V209.043H93.6001ZM93.6001 166.4V165.4H92.6001V166.4H93.6001ZM156 166.4V167.4H157V166.4H156ZM156 104V103H155V104H156ZM195.172 104V105H196.009L196.156 104.176L195.172 104ZM204.042 54.3264L203.057 54.1506L203.057 54.1506L204.042 54.3264ZM199.325 33.3077L200.141 32.7294L200.141 32.7294L199.325 33.3077ZM191.298 25.7185L190.766 26.5649L190.766 26.5649L191.298 25.7185ZM180.942 21.7417L180.771 22.7268L180.771 22.7269L180.942 21.7417ZM71.8655 44.1412L71.6928 45.1262L71.6928 45.1262L71.8655 44.1412ZM65.3333 45.8994L65.9678 46.6725L65.9768 46.6649L65.3333 45.8994ZM153.192 58.4005L153.019 59.3855L153.019 59.3855L153.192 58.4005ZM155.461 59.1597L155.005 60.0497L155.014 60.0539L155.022 60.058L155.461 59.1597ZM158.376 61.6326L157.56 62.2112L157.56 62.2112L158.376 61.6326ZM159.723 65.0899L158.731 65.2148L158.732 65.2267L158.734 65.2385L159.723 65.0899ZM159.69 67.6619L160.675 67.8346L160.675 67.8346L159.69 67.6619ZM150.428 74.1601L150.256 75.1451L150.256 75.1451L150.428 74.1601ZM69.1023 59.9008L69.275 58.9159L69.275 58.9159L69.1023 59.9008ZM62.6041 50.6394L63.5891 50.8121L63.5891 50.8121L62.6041 50.6394ZM62.817 49.7341L63.7757 50.0188L63.7792 50.0065L62.817 49.7341ZM63.7657 47.6482L62.9278 47.1023L62.9278 47.1023L63.7657 47.6482ZM151.666 110.252L150.808 109.739L150.794 109.762L150.782 109.786L151.666 110.252ZM143.206 114.4L143.033 115.385L143.033 115.385L143.206 114.4ZM152.626 107.684L151.642 107.508L151.642 107.508L152.626 107.684ZM152.551 104.655L151.576 104.879L151.576 104.879L152.551 104.655ZM149.052 99.8235L148.532 100.678L148.532 100.678L149.052 99.8235ZM148.096 99.3289L147.658 100.228L147.678 100.238L147.699 100.247L148.096 99.3289ZM145.969 98.6408L146.142 97.6559L146.142 97.6559L145.969 98.6408ZM64.643 84.3816L64.4703 85.3666L64.4703 85.3666L64.643 84.3816ZM55.3816 90.8798L54.3966 90.7071L54.3966 90.7071L55.3816 90.8798ZM61.8798 100.141L62.0525 99.1562L62.0525 99.1562L61.8798 100.141ZM49.091 128.709L49.9671 129.191L49.9776 129.172L49.9872 129.153L49.091 128.709ZM57.643 124.382L57.4703 125.367L57.4703 125.367L57.643 124.382ZM108.53 133.304L108.357 134.289L108.357 134.289L108.53 133.304ZM115.028 142.565L114.043 142.393L114.043 142.393L115.028 142.565ZM105.767 149.063L105.594 150.048L105.594 150.048L105.767 149.063ZM54.8798 140.141L54.7071 141.126L54.7071 141.126L54.8798 140.141ZM51.3349 138.567L51.9513 137.779L51.9358 137.767L51.9199 137.755L51.3349 138.567ZM49.5984 136.835L48.7885 137.421L48.7885 137.421L49.5984 136.835ZM48.3416 134.071L49.3161 133.847L49.3161 133.847L48.3416 134.071ZM48.2663 131.042L49.2507 131.217L49.2507 131.217L48.2663 131.042ZM196.182 178.217H195.182V179.217H196.182V178.217ZM196.182 114.399H197.182V113.399H196.182V114.399ZM260 178.217H261V177.217H260V178.217ZM260 206.581V207.581H261V206.581H260ZM196.182 206.581V205.581H195.182V206.581H196.182ZM196.182 270.399V271.399H197.182V270.399H196.182ZM167.818 270.399H166.818V271.399H167.818V270.399ZM167.818 206.581H168.818V205.581H167.818V206.581ZM104 206.581H103V207.581H104V206.581ZM104 178.217V177.217H103V178.217H104ZM167.818 178.217V179.217H168.818V178.217H167.818ZM167.818 114.399V113.399H166.818V114.399H167.818ZM47.686 1.64342C51.2102 0.871738 54.8539 0.793354 58.4088 1.41278L58.7522 -0.557532C54.9416 -1.2215 51.036 -1.1375 47.2582 -0.310288L47.686 1.64342ZM37.871 5.90934C40.8267 3.86485 44.1619 2.41511 47.686 1.64342L47.2582 -0.310288C43.4805 0.516926 39.904 2.07127 36.7332 4.26449L37.871 5.90934ZM30.4596 13.5575C32.3971 10.5528 34.9153 7.95381 37.871 5.90934L36.7332 4.26449C33.5625 6.45774 30.8593 9.24704 28.7787 12.4736L30.4596 13.5575ZM26.5776 23.4207C27.2032 19.9137 28.5221 16.5621 30.4596 13.5575L28.7787 12.4736C26.6981 15.7002 25.281 19.3007 24.6087 23.0695L26.5776 23.4207ZM1.41779 164.427L26.5776 23.4208L24.6087 23.0694L-0.55111 164.075L1.41779 164.427ZM5.96238 184.689C1.78667 178.796 0.15287 171.508 1.41776 164.427L-0.551074 164.075C-1.91059 171.686 -0.153708 179.516 4.33053 185.845L5.96238 184.689ZM23.6942 195.851C16.5159 194.599 10.1384 190.582 5.96238 184.689L4.33053 185.845C8.81443 192.173 15.6569 196.479 23.3506 197.821L23.6942 195.851ZM93.7717 208.057L23.694 195.851L23.3508 197.821L93.4285 210.028L93.7717 208.057ZM92.6001 166.4V209.043H94.6001V166.4H92.6001ZM156 165.4H93.6001V167.4H156V165.4ZM155 104V166.4H157V104H155ZM195.172 103H156V105H195.172V103ZM203.057 54.1506L194.187 103.824L196.156 104.176L205.026 54.5021L203.057 54.1506ZM202.824 43.5725C203.604 47.0493 203.683 50.6437 203.057 54.1506L205.026 54.5022C205.699 50.7335 205.614 46.8707 204.775 43.1346L202.824 43.5725ZM198.509 33.886C200.578 36.8043 202.044 40.0958 202.824 43.5725L204.775 43.1346C203.937 39.3985 202.362 35.8629 200.141 32.7294L198.509 33.886ZM190.766 26.5649C193.809 28.4799 196.44 30.9678 198.509 33.886L200.141 32.7294C197.919 29.5959 195.095 26.9262 191.831 24.8721L190.766 26.5649ZM180.771 22.7269C184.326 23.3456 187.722 24.6499 190.766 26.5649L191.831 24.8721C188.566 22.818 184.924 21.4197 181.114 20.7565L180.771 22.7269ZM58.4089 1.41279L180.771 22.7268L181.114 20.7565L58.7521 -0.557541L58.4089 1.41279ZM72.0382 43.1563C69.3106 42.678 66.6539 43.4832 64.6899 45.1339L65.9768 46.6649C67.5076 45.3783 69.5719 44.7543 71.6928 45.1262L72.0382 43.1563ZM153.364 57.4155L72.0382 43.1563L71.6928 45.1262L153.019 59.3855L153.364 57.4155ZM155.917 58.2698C155.132 57.8676 154.276 57.5753 153.364 57.4155L153.019 59.3855C153.731 59.5103 154.397 59.7379 155.005 60.0497L155.917 58.2698ZM159.191 61.054C158.34 59.8537 157.204 58.899 155.901 58.2615L155.022 60.058C156.029 60.5509 156.905 61.2878 157.56 62.2112L159.191 61.054ZM160.715 64.965C160.54 63.5697 160.022 62.2249 159.191 61.0539L157.56 62.2112C158.199 63.112 158.596 64.1447 158.731 65.2148L160.715 64.965ZM160.675 67.8346C160.847 66.8528 160.853 65.8784 160.712 64.9413L158.734 65.2385C158.843 65.9651 158.839 66.7225 158.705 67.4892L160.675 67.8346ZM150.256 75.1451C155.152 76.0035 159.816 72.7305 160.675 67.8346L158.705 67.4892C158.037 71.2971 154.409 73.8428 150.601 73.1751L150.256 75.1451ZM68.9296 60.8858L150.256 75.1451L150.601 73.1751L69.275 58.9159L68.9296 60.8858ZM61.6191 50.4667C60.7607 55.3626 64.0338 60.0274 68.9296 60.8858L69.275 58.9159C65.4671 58.2482 62.9214 54.62 63.5891 50.8121L61.6191 50.4667ZM61.8583 49.4495C61.7601 49.7801 61.68 50.1196 61.6191 50.4667L63.5891 50.8121C63.6367 50.5407 63.6992 50.276 63.7756 50.0188L61.8583 49.4495ZM62.9278 47.1023C62.4521 47.8324 62.0908 48.6279 61.8548 49.4618L63.7792 50.0065C63.9603 49.3667 64.2377 48.7556 64.6035 48.1941L62.9278 47.1023ZM64.699 45.1264C64.0116 45.6905 63.4138 46.3565 62.9278 47.1023L64.6035 48.1942C64.9773 47.6205 65.4375 47.1075 65.9677 46.6724L64.699 45.1264ZM150.782 109.786C149.402 112.404 146.448 113.954 143.379 113.415L143.033 115.385C146.982 116.078 150.779 114.082 152.551 110.718L150.782 109.786ZM151.642 107.508C151.501 108.296 151.219 109.051 150.808 109.739L152.525 110.765C153.06 109.87 153.428 108.886 153.611 107.859L151.642 107.508ZM151.576 104.879C151.775 105.743 151.797 106.636 151.642 107.508L153.611 107.859C153.813 106.722 153.784 105.557 153.525 104.431L151.576 104.879ZM150.484 102.478C151.007 103.199 151.378 104.015 151.576 104.879L153.525 104.431C153.267 103.305 152.783 102.242 152.104 101.304L150.484 102.478ZM148.532 100.678C149.298 101.144 149.962 101.756 150.484 102.478L152.104 101.304C151.425 100.367 150.564 99.573 149.572 98.9692L148.532 100.678ZM147.699 100.247C147.986 100.371 148.264 100.515 148.532 100.678L149.572 98.9693C149.225 98.7583 148.865 98.572 148.494 98.4113L147.699 100.247ZM145.796 99.6258C146.46 99.7422 147.084 99.9479 147.658 100.228L148.534 98.43C147.794 98.069 146.991 97.8048 146.142 97.6559L145.796 99.6258ZM64.4703 85.3666L145.796 99.6258L146.142 97.6559L64.8157 83.3966L64.4703 85.3666ZM56.3666 91.0525C57.0342 87.2446 60.6624 84.6989 64.4703 85.3666L64.8157 83.3966C59.9198 82.5382 55.255 85.8112 54.3966 90.7071L56.3666 91.0525ZM62.0525 99.1562C58.2446 98.4886 55.6989 94.8604 56.3666 91.0525L54.3966 90.7071C53.5382 95.603 56.8112 100.268 61.7071 101.126L62.0525 99.1562ZM143.379 113.415L62.0525 99.1562L61.7071 101.126L143.033 115.385L143.379 113.415ZM49.9872 129.153C51.3295 126.44 54.3404 124.818 57.4703 125.367L57.8157 123.397C53.7883 122.69 49.9198 124.78 48.1947 128.266L49.9872 129.153ZM57.4703 125.367L108.357 134.289L108.703 132.319L57.8157 123.397L57.4703 125.367ZM108.357 134.289C112.165 134.956 114.711 138.585 114.043 142.393L116.013 142.738C116.872 137.842 113.599 133.177 108.703 132.319L108.357 134.289ZM114.043 142.393C113.376 146.2 109.748 148.746 105.94 148.078L105.594 150.048C110.49 150.907 115.155 147.634 116.013 142.738L114.043 142.393ZM105.94 148.078L55.0525 139.156L54.7071 141.126L105.594 150.048L105.94 148.078ZM55.0525 139.156C53.8782 138.95 52.8265 138.464 51.9513 137.779L50.7185 139.354C51.8462 140.237 53.2012 140.862 54.7071 141.126L55.0525 139.156ZM51.9199 137.755C51.3383 137.336 50.8279 136.827 50.4083 136.248L48.7885 137.421C49.3338 138.174 49.9964 138.834 50.75 139.378L51.9199 137.755ZM50.4083 136.248C49.8858 135.527 49.5147 134.71 49.3161 133.847L47.367 134.295C47.6259 135.421 48.1094 136.483 48.7885 137.421L50.4083 136.248ZM49.3161 133.847C49.1176 132.983 49.0953 132.089 49.2507 131.217L47.2818 130.866C47.0791 132.003 47.1081 133.169 47.367 134.295L49.3161 133.847ZM49.2507 131.217C49.3772 130.507 49.6194 129.823 49.9671 129.191L48.2148 128.227C47.7623 129.05 47.4467 129.941 47.2818 130.866L49.2507 131.217ZM197.182 178.217V114.399H195.182V178.217H197.182ZM260 177.217H196.182V179.217H260V177.217ZM261 206.581V178.217H259V206.581H261ZM196.182 207.581H260V205.581H196.182V207.581ZM197.182 270.399V206.581H195.182V270.399H197.182ZM167.818 271.399H196.182V269.399H167.818V271.399ZM166.818 206.581V270.399H168.818V206.581H166.818ZM104 207.581H167.818V205.581H104V207.581ZM103 178.217V206.581H105V178.217H103ZM167.818 177.217H104V179.217H167.818V177.217ZM166.818 114.399V178.217H168.818V114.399H166.818ZM196.182 113.399H167.818V115.399H196.182V113.399Z" fill="#0071BC" mask="url(#path-1-inside-1_239_41)"/>
</svg>
