<svg width="262" height="282" viewBox="0 0 262 282" fill="none" xmlns="http://www.w3.org/2000/svg">
<mask id="path-1-outside-1_239_11" maskUnits="userSpaceOnUse" x="0" y="0" width="262" height="282" fill="black">
<rect fill="white" width="262" height="282"/>
<path fill-rule="evenodd" clip-rule="evenodd" d="M163.712 55.2373C163.712 69.6219 157.998 83.4174 147.826 93.5888C137.655 103.76 123.859 109.475 109.475 109.475C95.09 109.475 81.2945 103.76 71.123 93.5888C60.9516 83.4174 55.2373 69.6219 55.2373 55.2373C55.2373 40.8527 60.9516 27.0572 71.123 16.8857C81.2945 6.71427 95.09 1 109.475 1C123.859 1 137.655 6.71427 147.826 16.8857C157.998 27.0572 163.712 40.8527 163.712 55.2373ZM24.2446 179.208C24.2446 176.047 27.6537 166.672 44.6998 156.599C60.4751 147.286 83.4407 140.467 109.475 140.467C134 140.467 146.451 141.549 161 149.461V125.334C145.65 120.24 128.09 117.223 109.475 117.223C49.8136 117.223 1 148.215 1 179.208C1 189.483 5.08162 199.337 12.347 206.602C19.6123 213.868 29.4662 217.949 39.7409 217.949H101V194.705H39.7409C35.631 194.705 31.6895 193.072 28.7833 190.166C25.8772 187.26 24.2446 183.318 24.2446 179.208ZM199.636 131V192.364H261V219.636H199.636V281H172.364V219.636H111V192.364H172.364V131H199.636ZM109.5 87C126.897 87 141 72.897 141 55.5C141 38.103 126.897 24 109.5 24C92.103 24 78 38.103 78 55.5C78 72.897 92.103 87 109.5 87Z"/>
</mask>
<path fill-rule="evenodd" clip-rule="evenodd" d="M163.712 55.2373C163.712 69.6219 157.998 83.4174 147.826 93.5888C137.655 103.76 123.859 109.475 109.475 109.475C95.09 109.475 81.2945 103.76 71.123 93.5888C60.9516 83.4174 55.2373 69.6219 55.2373 55.2373C55.2373 40.8527 60.9516 27.0572 71.123 16.8857C81.2945 6.71427 95.09 1 109.475 1C123.859 1 137.655 6.71427 147.826 16.8857C157.998 27.0572 163.712 40.8527 163.712 55.2373ZM24.2446 179.208C24.2446 176.047 27.6537 166.672 44.6998 156.599C60.4751 147.286 83.4407 140.467 109.475 140.467C134 140.467 146.451 141.549 161 149.461V125.334C145.65 120.24 128.09 117.223 109.475 117.223C49.8136 117.223 1 148.215 1 179.208C1 189.483 5.08162 199.337 12.347 206.602C19.6123 213.868 29.4662 217.949 39.7409 217.949H101V194.705H39.7409C35.631 194.705 31.6895 193.072 28.7833 190.166C25.8772 187.26 24.2446 183.318 24.2446 179.208ZM199.636 131V192.364H261V219.636H199.636V281H172.364V219.636H111V192.364H172.364V131H199.636ZM109.5 87C126.897 87 141 72.897 141 55.5C141 38.103 126.897 24 109.5 24C92.103 24 78 38.103 78 55.5C78 72.897 92.103 87 109.5 87Z" fill="#0071BC"/>
<path d="M147.826 93.5888L148.533 94.296L148.533 94.296L147.826 93.5888ZM71.123 93.5888L71.8301 92.8817L71.8301 92.8817L71.123 93.5888ZM71.123 16.8857L71.8301 17.5928L71.8301 17.5928L71.123 16.8857ZM147.826 16.8857L148.533 16.1786L148.533 16.1786L147.826 16.8857ZM44.6998 156.599L44.1914 155.738L44.191 155.738L44.6998 156.599ZM161 149.461L160.522 150.34L162 151.143V149.461H161ZM161 125.334H162V124.612L161.315 124.384L161 125.334ZM12.347 206.602L11.6398 207.309L11.6398 207.309L12.347 206.602ZM101 217.949V218.949H102V217.949H101ZM101 194.705H102V193.705H101V194.705ZM28.7833 190.166L29.4904 189.459L29.4904 189.459L28.7833 190.166ZM199.636 192.364H198.636V193.364H199.636V192.364ZM199.636 131H200.636V130H199.636V131ZM261 192.364H262V191.364H261V192.364ZM261 219.636V220.636H262V219.636H261ZM199.636 219.636V218.636H198.636V219.636H199.636ZM199.636 281V282H200.636V281H199.636ZM172.364 281H171.364V282H172.364V281ZM172.364 219.636H173.364V218.636H172.364V219.636ZM111 219.636H110V220.636H111V219.636ZM111 192.364V191.364H110V192.364H111ZM172.364 192.364V193.364H173.364V192.364H172.364ZM172.364 131V130H171.364V131H172.364ZM148.533 94.296C158.892 83.937 164.712 69.8871 164.712 55.2373H162.712C162.712 69.3567 157.103 82.8978 147.119 92.8817L148.533 94.296ZM109.475 110.475C124.124 110.475 138.174 104.655 148.533 94.296L147.119 92.8817C137.135 102.866 123.594 108.475 109.475 108.475V110.475ZM70.4159 94.296C80.7749 104.655 94.8247 110.475 109.475 110.475V108.475C95.3552 108.475 81.8141 102.866 71.8301 92.8817L70.4159 94.296ZM54.2373 55.2373C54.2373 69.8871 60.0569 83.937 70.4159 94.296L71.8301 92.8817C61.8462 82.8978 56.2373 69.3567 56.2373 55.2373H54.2373ZM70.4159 16.1786C60.0569 26.5376 54.2373 40.5874 54.2373 55.2373H56.2373C56.2373 41.1179 61.8462 27.5768 71.8301 17.5928L70.4159 16.1786ZM109.475 0C94.8247 0 80.7749 5.81963 70.4159 16.1786L71.8301 17.5928C81.8141 7.60891 95.3552 2 109.475 2V0ZM148.533 16.1786C138.174 5.81963 124.124 0 109.475 0V2C123.594 2 137.135 7.60891 147.119 17.5928L148.533 16.1786ZM164.712 55.2373C164.712 40.5874 158.892 26.5376 148.533 16.1786L147.119 17.5928C157.103 27.5768 162.712 41.1179 162.712 55.2373H164.712ZM44.191 155.738C35.5782 160.828 30.3559 165.773 27.2784 169.897C24.2177 173.999 23.2446 177.34 23.2446 179.208H25.2446C25.2446 177.915 25.976 174.987 28.8814 171.093C31.77 167.222 36.7753 162.443 45.2085 157.46L44.191 155.738ZM109.475 139.467C83.2771 139.467 60.1333 146.326 44.1914 155.738L45.2081 157.46C60.8168 148.245 83.6043 141.467 109.475 141.467V139.467ZM161.478 148.583C146.69 140.541 134.016 139.467 109.475 139.467V141.467C133.984 141.467 146.211 142.557 160.522 150.34L161.478 148.583ZM160 125.334V149.461H162V125.334H160ZM109.475 118.223C127.984 118.223 145.437 121.223 160.685 126.283L161.315 124.384C145.863 119.257 128.197 116.223 109.475 116.223V118.223ZM2 179.208C2 164.242 13.8252 149.01 33.3733 137.454C52.8671 125.931 79.8073 118.223 109.475 118.223V116.223C79.4809 116.223 52.1837 124.011 32.3555 135.732C12.5815 147.421 0 163.182 0 179.208H2ZM13.0541 205.895C5.97626 198.817 2 189.218 2 179.208H0C0 189.748 4.18698 199.856 11.6398 207.309L13.0541 205.895ZM39.7409 216.949C29.7314 216.949 20.1319 212.973 13.0541 205.895L11.6398 207.309C19.0927 214.762 29.201 218.949 39.7409 218.949V216.949ZM101 216.949H39.7409V218.949H101V216.949ZM100 194.705V217.949H102V194.705H100ZM39.7409 195.705H101V193.705H39.7409V195.705ZM28.0762 190.873C31.1699 193.967 35.3658 195.705 39.7409 195.705V193.705C35.8962 193.705 32.209 192.177 29.4904 189.459L28.0762 190.873ZM23.2446 179.208C23.2446 183.583 24.9826 187.779 28.0762 190.873L29.4904 189.459C26.7718 186.74 25.2446 183.053 25.2446 179.208H23.2446ZM200.636 192.364V131H198.636V192.364H200.636ZM261 191.364H199.636V193.364H261V191.364ZM262 219.636V192.364H260V219.636H262ZM199.636 220.636H261V218.636H199.636V220.636ZM200.636 281V219.636H198.636V281H200.636ZM172.364 282H199.636V280H172.364V282ZM171.364 219.636V281H173.364V219.636H171.364ZM111 220.636H172.364V218.636H111V220.636ZM110 192.364V219.636H112V192.364H110ZM172.364 191.364H111V193.364H172.364V191.364ZM171.364 131V192.364H173.364V131H171.364ZM199.636 130H172.364V132H199.636V130ZM140 55.5C140 72.3447 126.345 86 109.5 86V88C127.449 88 142 73.4493 142 55.5H140ZM109.5 25C126.345 25 140 38.6553 140 55.5H142C142 37.5507 127.449 23 109.5 23V25ZM79 55.5C79 38.6553 92.6553 25 109.5 25V23C91.5507 23 77 37.5507 77 55.5H79ZM109.5 86C92.6553 86 79 72.3447 79 55.5H77C77 73.4493 91.5507 88 109.5 88V86Z" fill="white" mask="url(#path-1-outside-1_239_11)"/>
</svg>
