<svg width="26" height="27" viewBox="0 0 26 27" fill="none" xmlns="http://www.w3.org/2000/svg">
<path d="M5.54691 0.533696L5.54694 0.533701L17.3125 2.58313L17.3126 2.58314C17.6028 2.63365 17.8798 2.74009 18.1278 2.89614C18.3758 3.05217 18.5898 3.25468 18.7579 3.49183C18.926 3.72896 19.045 3.99616 19.1083 4.2781C19.1715 4.56003 19.178 4.85145 19.1272 5.13579L16.706 18.6949C16.6034 19.2687 16.274 19.7805 15.788 20.1167C15.3017 20.453 14.6991 20.5853 14.113 20.4834L2.34768 18.434C2.34764 18.434 2.34761 18.434 2.34757 18.4339C1.76146 18.3317 1.24217 18.004 0.902815 17.525C0.563602 17.0463 0.43136 16.4552 0.533875 15.8813L0.533893 15.8812L2.95311 2.32293L2.95311 2.32291C3.00384 2.03855 3.11082 1.76654 3.26821 1.52246C3.42561 1.27836 3.63041 1.06688 3.87118 0.900339C4.11197 0.733787 4.38393 0.615508 4.67158 0.552521C4.95924 0.489532 5.25671 0.48313 5.54691 0.533696ZM14.4014 7.56901L14.4017 7.56905C14.7256 7.62534 15.0594 7.55241 15.33 7.36508C15.6008 7.17761 15.7868 6.89029 15.8447 6.5652C15.9026 6.24001 15.8271 5.90597 15.6362 5.6369C15.4455 5.3681 15.1558 5.18671 14.8319 5.13037C14.8318 5.13036 14.8318 5.13035 14.8317 5.13034L6.993 3.76513C6.83275 3.73476 6.66803 3.7359 6.50818 3.76852C6.34657 3.80149 6.19292 3.86603 6.05628 3.95864C5.91961 4.05125 5.80261 4.17014 5.71239 4.30861C5.62216 4.4471 5.5606 4.60229 5.53158 4.76514C5.50256 4.928 5.50671 5.09496 5.54379 5.25617C5.58086 5.41737 5.65003 5.56931 5.74697 5.70315C5.84389 5.83698 5.96657 5.94997 6.10758 6.03579C6.24697 6.12062 6.40162 6.17729 6.56264 6.20281L14.4014 7.56901ZM4.85484 8.64146L4.85471 8.64219C4.79708 8.96697 4.87248 9.3005 5.06305 9.56925C5.25346 9.83777 5.5427 10.0191 5.86619 10.0757L5.86648 10.0757L13.7064 11.4419C13.8666 11.4723 14.0314 11.4712 14.1912 11.4386C14.3529 11.4056 14.5065 11.3411 14.6432 11.2484C14.7798 11.1558 14.8968 11.0369 14.987 10.8985C15.0773 10.76 15.1388 10.6048 15.1679 10.4419C15.1969 10.2791 15.1927 10.1121 15.1556 9.95092C15.1186 9.78972 15.0494 9.63778 14.9525 9.50393C14.8555 9.3701 14.7329 9.25711 14.5919 9.1713C14.4525 9.08646 14.2978 9.02979 14.1368 9.00427L6.2981 7.63908C5.97435 7.58259 5.64061 7.65525 5.36997 7.8423C5.0991 8.02949 4.91299 8.31655 4.85484 8.64146ZM10.0777 14.804L10.0779 14.804C10.4019 14.8603 10.7357 14.7874 11.0063 14.6C11.2771 14.4126 11.463 14.1252 11.5209 13.8002C11.5789 13.475 11.5034 13.1409 11.3125 12.8718C11.1218 12.603 10.832 12.4216 10.508 12.3653L5.61012 11.5124C5.44988 11.4821 5.28518 11.4832 5.12535 11.5158C4.96374 11.5488 4.81009 11.6133 4.67344 11.7059C4.53678 11.7986 4.41978 11.9174 4.32956 12.0559C4.23933 12.1944 4.17776 12.3496 4.14874 12.5124C4.11972 12.6753 4.12388 12.8423 4.16095 13.0035C4.19802 13.1647 4.26719 13.3166 4.36413 13.4505C4.46106 13.5843 4.58374 13.6973 4.72474 13.7831C4.86412 13.8679 5.01875 13.9246 5.17976 13.9501L10.0777 14.804Z" fill="#0071BC" stroke="#0071BC"/>
<path d="M19.3636 11V10.5H18.8636H16.1364H15.6364V11V16.6364H10H9.5V17.1364V19.8636V20.3636H10H15.6364V26V26.5H16.1364H18.8636H19.3636V26V20.3636H25H25.5V19.8636V17.1364V16.6364H25H19.3636V11Z" fill="#0071BC" stroke="white"/>
</svg>
