<svg width="67" height="56" viewBox="0 0 67 56" fill="none" xmlns="http://www.w3.org/2000/svg">
<path fill-rule="evenodd" clip-rule="evenodd" d="M50.25 8.61536H60.7963C64.2238 8.61536 67 11.3693 67 14.7692V49.8461C67 53.2462 64.2238 56 60.7963 56H6.2037C2.77615 56 0 53.2462 0 49.8461V14.7692C0 11.3693 2.77615 8.61536 6.2037 8.61536H16.75L19.2703 1.6308C19.6192 0.653871 20.5575 8.73173e-07 21.6044 8.73173e-07H45.3956C45.9077 -0.000426373 46.4075 0.155946 46.8267 0.447816C47.2458 0.739686 47.5639 1.15283 47.7375 1.6308L50.25 8.61536ZM60.7963 50.4615C61.1375 50.4615 61.4167 50.1846 61.4167 49.8461V14.7692C61.4167 14.4308 61.1375 14.1539 60.7963 14.1539H46.3106L44.9846 10.4769L43.2088 5.53845H23.7834L22.0076 10.4769L20.6816 14.1539H6.2037C5.86249 14.1539 5.58334 14.4308 5.58334 14.7692V49.8461C5.58334 50.1846 5.86249 50.4615 6.2037 50.4615H60.7963ZM21.0926 31.3846C21.0926 24.5846 26.6449 19.0769 33.5 19.0769C40.3551 19.0769 45.9074 24.5846 45.9074 31.3846C45.9074 38.1846 40.3551 43.6923 33.5 43.6923C26.6449 43.6923 21.0926 38.1846 21.0926 31.3846ZM35.7132 24.3322C38.775 25.2764 41 28.1282 41 31.5C41 35.6422 37.6421 39 33.5 39C29.3579 39 26 35.6422 26 31.5C26 28.3681 27.9198 25.685 30.6467 24.5623C31.5255 24.2 32.4893 24 33.5 24C34.2706 24 35.014 24.1163 35.7132 24.3322Z" fill="white"/>
</svg>
